<?xml version="1.0" encoding="UTF-8" standalone="no"?>
<!DOCTYPE svg PUBLIC "-//W3C//DTD SVG 1.1//EN"
 "http://www.w3.org/Graphics/SVG/1.1/DTD/svg11.dtd">
<!-- Generated by graphviz version 2.40.1 (20161225.0304)
 -->
<!-- Title: cdoi Pages: 1 -->
<svg width="755pt" height="358pt"
 viewBox="0.00 0.00 755.30 358.00" xmlns="http://www.w3.org/2000/svg" xmlns:xlink="http://www.w3.org/1999/xlink">
<g id="graph0" class="graph" transform="scale(1 1) rotate(0) translate(4 354)">
<title>cdoi</title>
<polygon fill="#ffffff" stroke="transparent" points="-4,4 -4,-354 751.2988,-354 751.2988,4 -4,4"/>
<!-- Control -->
<g id="node1" class="node">
<title>Control</title>
<polygon fill="#e0f2fe" stroke="#0284c7" stroke-width="1.5" points="151.3476,-197 -.116,-197 -.116,-153 151.3476,-153 151.3476,-197"/>
<text text-anchor="start" x="29.1074" y="-177.8" font-family="Helvetica,sans-Serif" font-size="18.00" fill="#000000"> &#160;&#160;&#160;</text>
<text text-anchor="start" x="49.1162" y="-177.8" font-family="Helvetica,sans-Serif" font-weight="bold" font-size="18.00" fill="#000000">Control</text>
<text text-anchor="start" x="8" y="-159.8" font-family="Helvetica,sans-Serif" font-size="14.00" fill="#000000">Gesti贸 i tra莽abilitat</text>
<text text-anchor="start" x="133.2272" y="-159.8" font-family="Helvetica,sans-Serif" font-size="18.00" fill="#000000"> &#160;</text>
</g>
<!-- DataIN -->
<g id="node2" class="node">
<title>DataIN</title>
<polygon fill="#dcfce7" stroke="#16a34a" stroke-width="1.5" points="395.7109,-350 272.7887,-350 272.7887,-306 395.7109,-306 395.7109,-350"/>
<text text-anchor="start" x="285.7353" y="-330.8" font-family="Helvetica,sans-Serif" font-size="18.00" fill="#000000"> &#160;&#160;&#160;</text>
<text text-anchor="start" x="305.7441" y="-330.8" font-family="Helvetica,sans-Serif" font-weight="bold" font-size="18.00" fill="#000000">Data in</text>
<text text-anchor="start" x="281.0197" y="-312.8" font-family="Helvetica,sans-Serif" font-size="14.00" fill="#000000">Dades originals</text>
<text text-anchor="start" x="377.4755" y="-312.8" font-family="Helvetica,sans-Serif" font-size="18.00" fill="#000000"> &#160;</text>
</g>
<!-- Control&#45;&gt;DataIN -->
<g id="edge1" class="edge">
<title>Control&#45;&gt;DataIN</title>
<path fill="none" stroke="#64748b" stroke-width="1.5" d="M108.8817,-197.079C141.2297,-218.2889 191.9726,-250.8766 237.2316,-277 251.0238,-284.9608 266.1665,-293.167 280.3028,-300.6073"/>
<polygon fill="#64748b" stroke="#64748b" stroke-width="1.5" points="278.8524,-304.1933 290.3847,-305.8752 282.4184,-297.3687 278.8524,-304.1933"/>
</g>
<!-- Codi -->
<g id="node3" class="node">
<title>Codi</title>
<polygon fill="#f3e8ff" stroke="#9333ea" stroke-width="1.5" points="400.0454,-248 268.4542,-248 268.4542,-204 400.0454,-204 400.0454,-248"/>
<text text-anchor="start" x="290.7375" y="-228.8" font-family="Helvetica,sans-Serif" font-size="18.00" fill="#000000"> &#160;&#160;&#160;</text>
<text text-anchor="start" x="310.7463" y="-228.8" font-family="Helvetica,sans-Serif" font-weight="bold" font-size="18.00" fill="#000000"> Codi</text>
<text text-anchor="start" x="276.3521" y="-210.8" font-family="Helvetica,sans-Serif" font-size="14.00" fill="#000000">Scripts, pipelines</text>
<text text-anchor="start" x="382.1431" y="-210.8" font-family="Helvetica,sans-Serif" font-size="18.00" fill="#000000"> &#160;</text>
</g>
<!-- Control&#45;&gt;Codi -->
<g id="edge2" class="edge">
<title>Control&#45;&gt;Codi</title>
<path fill="none" stroke="#64748b" stroke-width="1.5" d="M151.467,-189.9571C184.678,-196.506 223.5992,-204.1808 256.9712,-210.7614"/>
<polygon fill="#64748b" stroke="#64748b" stroke-width="1.5" points="256.5226,-214.597 268.0596,-212.948 258.0123,-207.0425 256.5226,-214.597"/>
</g>
<!-- Entorn -->
<g id="node4" class="node">
<title>Entorn</title>
<polygon fill="#fef9c3" stroke="#ca8a04" stroke-width="1.5" points="431.2862,-146 237.2134,-146 237.2134,-102 431.2862,-102 431.2862,-146"/>
<text text-anchor="start" x="280.7331" y="-126.8" font-family="Helvetica,sans-Serif" font-size="18.00" fill="#000000"> &#160;&#160;&#160;</text>
<text text-anchor="start" x="300.7419" y="-126.8" font-family="Helvetica,sans-Serif" font-weight="bold" font-size="18.00" fill="#000000">锔 Entorn</text>
<text text-anchor="start" x="245.2316" y="-108.8" font-family="Helvetica,sans-Serif" font-size="16.00" fill="#000000">Versi贸 i depend猫ncies</text>
<text text-anchor="start" x="413.2636" y="-108.8" font-family="Helvetica,sans-Serif" font-size="18.00" fill="#000000"> &#160;</text>
</g>
<!-- Control&#45;&gt;Entorn -->
<g id="edge3" class="edge">
<title>Control&#45;&gt;Entorn</title>
<path fill="none" stroke="#64748b" stroke-width="1.5" d="M151.467,-160.0429C174.8381,-155.4344 201.0371,-150.2682 226.14,-145.3182"/>
<polygon fill="#64748b" stroke="#64748b" stroke-width="1.5" points="227.1523,-149.0428 237.1996,-143.1373 225.6625,-141.4882 227.1523,-149.0428"/>
</g>
<!-- DataOUT -->
<g id="node5" class="node">
<title>DataOUT</title>
<polygon fill="#ffe4e6" stroke="#be123c" stroke-width="1.5" points="417.7076,-44 250.792,-44 250.792,0 417.7076,0 417.7076,-44"/>
<text text-anchor="start" x="277.7271" y="-24.8" font-family="Helvetica,sans-Serif" font-size="18.00" fill="#000000"> &#160;&#160;&#160;</text>
<text text-anchor="start" x="297.7359" y="-24.8" font-family="Helvetica,sans-Serif" font-weight="bold" font-size="18.00" fill="#000000"> Data out</text>
<text text-anchor="start" x="259.0212" y="-6.8" font-family="Helvetica,sans-Serif" font-size="16.00" fill="#000000">Resultats i informes</text>
<text text-anchor="start" x="399.474" y="-6.8" font-family="Helvetica,sans-Serif" font-size="18.00" fill="#000000"> &#160;</text>
</g>
<!-- Control&#45;&gt;DataOUT -->
<g id="edge4" class="edge">
<title>Control&#45;&gt;DataOUT</title>
<path fill="none" stroke="#64748b" stroke-width="1.5" d="M108.8817,-152.921C141.2297,-131.7111 191.9726,-99.1234 237.2316,-73 251.0238,-65.0392 266.1665,-56.833 280.3028,-49.3927"/>
<polygon fill="#64748b" stroke="#64748b" stroke-width="1.5" points="282.4184,-52.6313 290.3847,-44.1248 278.8524,-45.8067 282.4184,-52.6313"/>
</g>
<!-- DataIN_det -->
<g id="node6" class="node">
<title>DataIN_det</title>
<text text-anchor="start" x="532.9398" y="-330.6" font-family="Helvetica,sans-Serif" font-size="14.00" fill="#000000"> &#160;&#160;&#160;</text>
<text text-anchor="start" x="548.5022" y="-330.6" font-family="Helvetica,sans-Serif" font-size="16.00" fill="#000000"> Addici贸 o eliminaci贸</text>
<text text-anchor="start" x="551.0392" y="-314.6" font-family="Helvetica,sans-Serif" font-size="16.00" fill="#000000">de pacients, variables</text>
<text text-anchor="start" x="705.7464" y="-314.6" font-family="Helvetica,sans-Serif" font-size="14.00" fill="#000000"> &#160;</text>
</g>
<!-- DataIN&#45;&gt;DataIN_det -->
<g id="edge5" class="edge">
<title>DataIN&#45;&gt;DataIN_det</title>
<path fill="none" stroke="#94a3b8" stroke-width="1.5" stroke-dasharray="5,2" d="M395.6412,-328C430.2559,-328 474.654,-328 515.6236,-328"/>
<polygon fill="#94a3b8" stroke="#94a3b8" stroke-width="1.5" points="515.8547,-331.1501 524.8546,-328 515.8546,-324.8501 515.8547,-331.1501"/>
</g>
<!-- Codi_det -->
<g id="node7" class="node">
<title>Codi_det</title>
<text text-anchor="start" x="532.7454" y="-228.6" font-family="Helvetica,sans-Serif" font-size="14.00" fill="#000000"> &#160;&#160;&#160;</text>
<text text-anchor="start" x="548.3078" y="-228.6" font-family="Helvetica,sans-Serif" font-size="16.00" fill="#000000">З Modificaci贸 dscripts</text>
<text text-anchor="start" x="568.3704" y="-212.6" font-family="Helvetica,sans-Serif" font-size="16.00" fill="#000000">o noves funcions</text>
<text text-anchor="start" x="688.4152" y="-212.6" font-family="Helvetica,sans-Serif" font-size="14.00" fill="#000000"> &#160;</text>
</g>
<!-- Codi&#45;&gt;Codi_det -->
<g id="edge6" class="edge">
<title>Codi&#45;&gt;Codi_det</title>
<path fill="none" stroke="#94a3b8" stroke-width="1.5" stroke-dasharray="5,2" d="M400.3931,-226C434.1302,-226 476.1768,-226 515.1666,-226"/>
<polygon fill="#94a3b8" stroke="#94a3b8" stroke-width="1.5" points="515.4791,-229.1501 524.4791,-226 515.479,-222.8501 515.4791,-229.1501"/>
</g>
<!-- Entorn_det -->
<g id="node8" class="node">
<title>Entorn_det</title>
<text text-anchor="start" x="554.7094" y="-126.6" font-family="Helvetica,sans-Serif" font-size="14.00" fill="#000000"> &#160;&#160;&#160;</text>
<text text-anchor="start" x="570.2718" y="-126.6" font-family="Helvetica,sans-Serif" font-size="16.00" fill="#000000"> Actualitzaci贸 de</text>
<text text-anchor="start" x="559.504" y="-110.6" font-family="Helvetica,sans-Serif" font-size="16.00" fill="#000000">llibreries o software</text>
<text text-anchor="start" x="697.2816" y="-110.6" font-family="Helvetica,sans-Serif" font-size="14.00" fill="#000000"> &#160;</text>
</g>
<!-- Entorn&#45;&gt;Entorn_det -->
<g id="edge7" class="edge">
<title>Entorn&#45;&gt;Entorn_det</title>
<path fill="none" stroke="#94a3b8" stroke-width="1.5" stroke-dasharray="5,2" d="M431.4248,-124C465.2735,-124 503.1989,-124 536.9008,-124"/>
<polygon fill="#94a3b8" stroke="#94a3b8" stroke-width="1.5" points="537.2876,-127.1501 546.2875,-124 537.2875,-120.8501 537.2876,-127.1501"/>
</g>
<!-- DataOUT_det -->
<g id="node9" class="node">
<title>DataOUT_det</title>
<text text-anchor="start" x="534.2582" y="-24.6" font-family="Helvetica,sans-Serif" font-size="14.00" fill="#000000"> &#160;&#160;&#160;</text>
<text text-anchor="start" x="549.8206" y="-24.6" font-family="Helvetica,sans-Serif" font-size="16.00" fill="#000000">锔 Lectura o exportaci贸</text>
<text text-anchor="start" x="525.268" y="-8.6" font-family="Helvetica,sans-Serif" font-size="16.00" fill="#000000">amb configuracions err貌nies</text>
<text text-anchor="start" x="731.5176" y="-8.6" font-family="Helvetica,sans-Serif" font-size="14.00" fill="#000000"> &#160;</text>
</g>
<!-- DataOUT&#45;&gt;DataOUT_det -->
<g id="edge8" class="edge">
<title>DataOUT&#45;&gt;DataOUT_det</title>
<path fill="none" stroke="#94a3b8" stroke-width="1.5" stroke-dasharray="5,2" d="M417.6651,-22C445.5999,-22 477.3775,-22 507.7586,-22"/>
<polygon fill="#94a3b8" stroke="#94a3b8" stroke-width="1.5" points="508.1366,-25.1501 517.1366,-22 508.1366,-18.8501 508.1366,-25.1501"/>
</g>
</g>
</svg>
